<?xml version="1.0" encoding="UTF-8"?>
<svg xmlns="http://www.w3.org/2000/svg" width="24.999" height="16.666" viewBox="0 0 24.999 16.666">
  <g id="mail" transform="translate(0 -85.333)">
    <g id="Group_18" data-name="Group 18" transform="translate(0 85.333)">
      <path id="Path_307" data-name="Path 307" d="M23.717,85.333H1.282A1.286,1.286,0,0,0,0,86.615v14.1A1.286,1.286,0,0,0,1.282,102H23.717A1.286,1.286,0,0,0,25,100.717v-14.1A1.286,1.286,0,0,0,23.717,85.333Zm-.481.961-10,7.5a1.34,1.34,0,0,1-1.475,0l-10-7.5Zm-5.341,7.995,5.449,6.731c.005.007.012.012.018.018H1.638c.006-.006.012-.011.018-.018L7.1,94.289a.481.481,0,0,0-.747-.605l-5.4,6.665V86.9l10.224,7.668a2.295,2.295,0,0,0,2.628,0L24.037,86.9v13.453l-5.4-6.665a.481.481,0,0,0-.747.605Z" transform="translate(0 -85.333)" fill="#ba263d"></path>
    </g>
  </g>
</svg>
