<?xml version="1.0" encoding="UTF-8"?>
<svg xmlns="http://www.w3.org/2000/svg" width="21.03" height="21.03" viewBox="0 0 21.03 21.03">
  <g id="phone-call_1_" data-name="phone-call (1)" transform="translate(-0.102 -25.73)">
    <g id="Page-1_44_" transform="translate(0.102 25.73)">
      <g id="_x30_45---Medical-Phone-Call" transform="translate(0 0)">
        <path id="Shape_137_" d="M21.359,41.256a13.433,13.433,0,0,0-4.7-1.887,1.648,1.648,0,0,0-1.552.583l-.959,1.17a1.318,1.318,0,0,1-.9.5,1.34,1.34,0,0,1-1-.291c-.738-.607-1.564-1.369-2.458-2.262s-1.656-1.722-2.261-2.456a1.335,1.335,0,0,1,.218-1.9l1.162-.951a1.649,1.649,0,0,0,.584-1.554,13.428,13.428,0,0,0-1.888-4.7,1.616,1.616,0,0,0-1.758-.728A10.568,10.568,0,0,0,2.169,28.86a2.925,2.925,0,0,0-1.053,2.55A18.045,18.045,0,0,0,6.566,42.3a18.041,18.041,0,0,0,10.887,5.45c.1.009.19.014.285.014A2.919,2.919,0,0,0,20,46.693a10.57,10.57,0,0,0,2.085-3.682,1.617,1.617,0,0,0-.728-1.756Zm.013,1.575a9.858,9.858,0,0,1-1.941,3.395,2.189,2.189,0,0,1-1.909.787A17.62,17.62,0,0,1,7.1,41.791c-.009-.01-.02-.021-.03-.03A17.618,17.618,0,0,1,1.85,31.341a2.188,2.188,0,0,1,.785-1.908A9.866,9.866,0,0,1,6.03,27.492a.882.882,0,0,1,.953.408,12.675,12.675,0,0,1,1.783,4.433.91.91,0,0,1-.321.856l-1.155.946a2.073,2.073,0,0,0-.329,2.948c.621.753,1.4,1.6,2.31,2.509s1.755,1.687,2.512,2.311a2.073,2.073,0,0,0,2.939-.322l.951-1.163a.906.906,0,0,1,.855-.323,12.667,12.667,0,0,1,4.435,1.784.882.882,0,0,1,.408.952h0Z" transform="translate(-1.102 -26.73)" fill="#ba263d"></path>
        <path id="Path_134_" d="M36.805,83.2c-.334.227-.678.484-1.021.763a1.452,1.452,0,0,0-.517,1.269,13.691,13.691,0,0,0,.3,1.83.369.369,0,0,0,.359.285.388.388,0,0,0,.084-.01.369.369,0,0,0,.275-.443A12.993,12.993,0,0,1,36,85.158a.716.716,0,0,1,.25-.627c.326-.266.652-.51.968-.725a.369.369,0,1,0-.416-.609Z" transform="translate(-33.783 -80.688)" fill="#ba263d" fill-rule="evenodd"></path>
      </g>
    </g>
  </g>
</svg>
