<?xml version="1.0" encoding="UTF-8"?>
<svg xmlns="http://www.w3.org/2000/svg" id="thrive_logo" data-name="thrive logo" width="67.836" height="36.88" viewBox="0 0 67.836 36.88">
  <path id="Path_327" data-name="Path 327" d="M2.065,228.05H0v-3.459H2.09V220.1H5.884v4.491h2.09v3.459H5.884v9.523H2.065Z" transform="translate(0 -202.061)" fill="#443f35"></path>
  <path id="Path_328" data-name="Path 328" d="M124.115,203.33h3.795v-5.942a11.347,11.347,0,0,1,.033-1.246,3.193,3.193,0,0,1,.09-.82h0a2.077,2.077,0,0,1,.123-.516,1.832,1.832,0,0,1,.18-.361h0a2.46,2.46,0,0,1,.393-.451,3.75,3.75,0,0,1,.549-.361,3.842,3.842,0,0,1,.664-.213,3.506,3.506,0,0,1,.787-.09,3.271,3.271,0,0,1,1.057.156,1.3,1.3,0,0,1,.549.393,2.611,2.611,0,0,1,.336.942,10.942,10.942,0,0,1,.156,1.852v6.671h3.795V195.6c0-.393,0-.877-.033-1.426a6,6,0,0,0-.123-.967,4.328,4.328,0,0,0-.213-.7,2.218,2.218,0,0,0-.336-.606,3.254,3.254,0,0,0-.729-.852,4.669,4.669,0,0,0-.967-.606h0a6.764,6.764,0,0,0-1.156-.361,6.325,6.325,0,0,0-1.336-.123,9.36,9.36,0,0,0-1.574.156,6.464,6.464,0,0,0-1.36.451,5.66,5.66,0,0,0-1.156.787V182.8H124v20.53Z" transform="translate(-113.837 -167.818)" fill="#443f35"></path>
  <path id="Path_329" data-name="Path 329" d="M310.495,272.948H306.7v13.015h3.795v-5.77c0-.516.033-1.123.09-1.787a4.363,4.363,0,0,1,.426-1.606,1.5,1.5,0,0,1,1.483-.787,1.921,1.921,0,0,1,1.033.213,7.774,7.774,0,0,1,.852.574l1.459-3.3a5.231,5.231,0,0,0-2.516-.7h-.336a3.708,3.708,0,0,0-2.483,1.156l-.008-1.008Z" transform="translate(-281.564 -250.442)" fill="#443f35"></path>
  <path id="Path_330" data-name="Path 330" d="M504.765,289.251l.484-.967,6.245-12.589.393-.762H507.7l-.148.336-2.582,5.942-.09.246-.09.246-.033-.09c-.057-.18-.123-.3-.148-.393l-2.573-5.983-.148-.336H497.7l.361.762,6.245,12.589Z" transform="translate(-456.91 -252.37)" fill="#443f35"></path>
  <path id="Path_331" data-name="Path 331" d="M668.245,274.65a2.833,2.833,0,0,1,.729-1.033h0a2.736,2.736,0,0,1,1.819-.516,3.726,3.726,0,0,1,1.574.336,2,2,0,0,1,.967,1.213Zm9.163,2.909v-1.065a8.831,8.831,0,0,0-.393-2.7,5.893,5.893,0,0,0-1.369-2.278,6.44,6.44,0,0,0-4.852-1.819,6.577,6.577,0,0,0-4.885,1.967,7.606,7.606,0,0,0-.057,10.015,6.55,6.55,0,0,0,4.942,1.91,7.268,7.268,0,0,0,3.762-.943,5.961,5.961,0,0,0,1.483-1.213,8.328,8.328,0,0,0,.7-.877,9.145,9.145,0,0,0,.574-.967l-3.123-1.672a3.362,3.362,0,0,1-3.09,2.278h-.057a2.764,2.764,0,0,1-3.09-2.606h9.466l-.008-.033Z" transform="translate(-609.581 -247.596)" fill="#443f35"></path>
  <path id="Path_332" data-name="Path 332" d="M416.019,194.72c-2-.156-3.7,2.18-3.7,2.18s-.549-2.065-4.122-3c1.459.484,2.18,4.762,2.18,4.762h0V213.52h3.795V199C414.232,198.268,414.5,195.449,416.019,194.72Z" transform="translate(-374.745 -178.009)" fill="#443f35"></path>
  <path id="Path_333" data-name="Path 333" d="M476.057,91.8a7.5,7.5,0,0,1,.27,4.909,6.941,6.941,0,0,1-3.336,3.426,7.5,7.5,0,0,1-.27-4.909A6.908,6.908,0,0,1,476.057,91.8Z" transform="translate(-433.685 -84.276)" fill="#6a8237"></path>
  <path id="Path_334" data-name="Path 334" d="M540.078,55.5a6.965,6.965,0,0,1-.7,4.336,6.15,6.15,0,0,1-3.459,2.393,6.965,6.965,0,0,1,.7-4.336A6.2,6.2,0,0,1,540.078,55.5Z" transform="translate(-491.92 -50.951)" fill="#6a8237"></path>
  <path id="Path_335" data-name="Path 335" d="M463.548,4.4a6.968,6.968,0,0,1,.607,4.336,6.032,6.032,0,0,1-2.606,3.311,6.968,6.968,0,0,1-.606-4.336A6.3,6.3,0,0,1,463.548,4.4Z" transform="translate(-423.029 -4.039)" fill="#6a8237"></path>
  <path id="Path_336" data-name="Path 336" d="M312.3,83.118a6.927,6.927,0,0,1,4.368.426,6.02,6.02,0,0,1,2.606,3.3,6.927,6.927,0,0,1-4.368-.426A6.176,6.176,0,0,1,312.3,83.118Z" transform="translate(-286.705 -76.143)" fill="#6a8237"></path>
  <path id="Path_337" data-name="Path 337" d="M513.785,27A4.946,4.946,0,0,1,514,30a4.112,4.112,0,0,1-1.942,2.123,4.946,4.946,0,0,1-.213-3A4.315,4.315,0,0,1,513.785,27Z" transform="translate(-469.75 -24.787)" fill="#6a8237"></path>
  <path id="Path_338" data-name="Path 338" d="M359.2,39.2a4.619,4.619,0,0,1,2.606,1.393,4.1,4.1,0,0,1,.787,2.729,4.619,4.619,0,0,1-2.606-1.393A4.178,4.178,0,0,1,359.2,39.2Z" transform="translate(-329.758 -35.987)" fill="#6a8237"></path>
  <path id="Path_339" data-name="Path 339" d="M410.057,0a6.034,6.034,0,0,1,2.278,3,5.026,5.026,0,0,1-.574,3.549,6.034,6.034,0,0,1-2.278-3A5.286,5.286,0,0,1,410.057,0Z" transform="translate(-375.815)" fill="#6a8237"></path>
  <path id="Path_340" data-name="Path 340" d="M525.487,132.989a6.607,6.607,0,0,1-2.762,4.155,9.083,9.083,0,0,1-5.426.82,6.607,6.607,0,0,1,2.762-4.155A8.823,8.823,0,0,1,525.487,132.989Z" transform="translate(-474.904 -121.983)" fill="#6a8237"></path>
  <path id="Path_341" data-name="Path 341" d="M507.962,204.164a4.742,4.742,0,0,1-3.213.639,4.806,4.806,0,0,1-2.549-2.065,4.742,4.742,0,0,1,3.213-.639A4.844,4.844,0,0,1,507.962,204.164Z" transform="translate(-461.041 -185.453)" fill="#6a8237"></path>
  <path id="Path_342" data-name="Path 342" d="M406.293,74.4a8.144,8.144,0,0,1,3.606,4.4,9.386,9.386,0,0,1-.729,5.884,8.144,8.144,0,0,1-3.606-4.4A9.446,9.446,0,0,1,406.293,74.4Z" transform="translate(-372.117 -68.302)" fill="#6a8237"></path>
  <path id="Path_343" data-name="Path 343" d="M300.1,143.251a8.593,8.593,0,0,1,5.426-.762,7.623,7.623,0,0,1,4.122,3.278,8.593,8.593,0,0,1-5.426.762A7.623,7.623,0,0,1,300.1,143.251Z" transform="translate(-275.505 -130.638)" fill="#6a8237"></path>
  <path id="Path_344" data-name="Path 344" d="M340.8,202.529a5.234,5.234,0,0,1,3-1.975,5.146,5.146,0,0,1,3.426,1.057,5.234,5.234,0,0,1-3,1.975A5.146,5.146,0,0,1,340.8,202.529Z" transform="translate(-312.869 -184.089)" fill="#6a8237"></path>
</svg>
